<svg xmlns="http://www.w3.org/2000/svg" viewBox="0 0 256 256" width="256" height="256" role="img" aria-label="Bank Al-Andalous favicon">
    <defs>
        <linearGradient id="orangeGrad" x1="0" y1="0" x2="1" y2="1">
            <stop offset="0%" stop-color="#FF7A1A" />
            <stop offset="100%" stop-color="#E8632A" />
        </linearGradient>

        <linearGradient id="darkGrad" x1="0" y1="0" x2="1" y2="1">
            <stop offset="0%" stop-color="#23262D" />
            <stop offset="100%" stop-color="#111318" />
        </linearGradient>

        <clipPath id="innerArchClip">
            <path
                d="M128 50
                C145 65 168 79 178 96
                C185 108 187 122 182 133
                C179 139 174 144 168 148
                L168 191
                L128 211
                L88 191
                L88 148
                C82 144 77 139 74 133
                C69 122 71 108 78 96
                C88 79 111 65 128 50 Z"
            />
        </clipPath>
    </defs>

    <!-- Background -->
    <rect width="256" height="256" rx="56" fill="#F8F6F1" />

    <!-- Outer Moroccan arch -->
    <path
        d="M128 23
        C148 38 177 57 196 79
        C209 95 216 115 216 138
        L216 185
        C208 193 200 201 192 209
        L192 145
        C192 132 188 121 180 113
        C174 107 172 97 176 89
        C180 80 180 68 174 59
        C161 40 138 31 128 23 Z"
        fill="url(#orangeGrad)"
    />

    <path
        d="M128 23
        C108 38 79 57 60 79
        C47 95 40 115 40 138
        L40 181
        C48 185 56 186 64 185
        L64 145
        C64 132 68 121 76 113
        C82 107 84 97 80 89
        C76 80 76 68 82 59
        C95 40 118 31 128 23 Z"
        fill="url(#orangeGrad)"
    />

    <!-- Inner light spacing -->
    <path
        d="M128 44
        C145 57 165 69 178 86
        C188 98 193 113 193 130
        L193 164
        L180 177
        L180 141
        C180 130 176 120 168 112
        C162 106 160 96 164 88
        C168 80 167 70 161 62
        C152 49 138 42 128 35
        C118 42 104 49 95 62
        C89 70 88 80 92 88
        C96 96 94 106 88 112
        C80 120 76 130 76 141
        L76 177
        L63 170
        L63 130
        C63 113 68 98 78 86
        C91 69 111 57 128 44 Z"
        fill="#F8F6F1"
    />

    <!-- Inner orange arch -->
    <path
        d="M128 58
        C142 69 159 80 170 94
        C179 105 182 118 179 129
        C177 135 172 140 166 145
        L166 183
        L128 202
        L90 183
        L90 145
        C84 140 79 135 77 129
        C74 118 77 105 86 94
        C97 80 114 69 128 58 Z"
        fill="url(#orangeGrad)"
    />

    <!-- Inner cutout -->
    <path
        d="M128 75
        C140 84 153 94 161 105
        C167 113 169 122 166 130
        C164 136 159 140 154 144
        L154 168
        L128 181
        L102 168
        L102 144
        C97 140 92 136 90 130
        C87 122 89 113 95 105
        C103 94 116 84 128 75 Z"
        fill="#F8F6F1"
    />

    <!-- Banking growth bars -->
    <g clip-path="url(#innerArchClip)" fill="url(#orangeGrad)">
        <rect x="103" y="128" width="10" height="31" rx="2" />
        <rect x="118" y="116" width="10" height="43" rx="2" />
        <rect x="133" y="101" width="12" height="58" rx="2" />
    </g>

    <!-- Growth arrow -->
    <path
        d="M93 155
        C112 149 131 147 148 151
        C163 154 177 158 191 154
        C201 151 211 144 220 136
        L220 149
        C211 159 199 167 187 171
        C172 176 156 176 141 172
        C126 168 110 168 96 173
        Z"
        fill="url(#orangeGrad)"
    />

    <path
        d="M202 126 L232 112 L223 143 Z"
        fill="url(#orangeGrad)"
    />

    <!-- Security shield -->
    <path
        d="M72 159
        L128 139
        L184 159
        C184 187 172 212 128 235
        C84 212 72 187 72 159 Z"
        fill="url(#darkGrad)"
    />

    <path
        d="M86 168
        L128 153
        L170 168
        C168 188 158 204 128 220
        C98 204 88 188 86 168 Z"
        fill="#F8F6F1"
    />

    <path
        d="M97 174
        L128 163
        L159 174
        C157 189 149 201 128 212
        C107 201 99 189 97 174 Z"
        fill="url(#darkGrad)"
    />

    <!-- Keyhole -->
    <circle cx="128" cy="185" r="8" fill="#F8F6F1" />
    <path d="M124 190 L132 190 L136 207 L120 207 Z" fill="#F8F6F1" />
</svg>
